<svg width="329" height="329" viewBox="0 0 329 329" fill="none" xmlns="http://www.w3.org/2000/svg">
<rect width="329" height="329" rx="30" fill="white"/>
<path d="M299 0C315.569 0 329 13.4315 329 30V132.104C325.391 128.289 321.182 125.02 316.369 122.3C307.169 116.9 296.069 114.2 283.069 114.2C270.669 114.2 258.769 117.2 247.369 123.2C236.169 129.2 226.969 138 219.77 149.6C212.57 161 208.97 174.9 208.97 191.3C208.97 207.1 212.07 220.7 218.27 232.1C224.47 243.5 233.069 252.3 244.069 258.5C255.069 264.5 267.669 267.5 281.869 267.5C296.269 267.5 308.57 264.4 318.77 258.2C322.442 256.011 325.851 253.52 329 250.732V299C329 315.569 315.569 329 299 329H30C13.4315 329 0 315.569 0 299V30C0 13.4315 13.4315 0 30 0H299ZM44.5996 65V68L50.2998 70.4004C54.2997 71.8004 57.0004 73.6997 58.4004 76.0996C59.8004 78.4996 60.5 81.7002 60.5 85.7002V242.9C60.5 246.9 59.8003 250.1 58.4004 252.5C57.2004 254.9 54.5996 256.7 50.5996 257.9L44.5996 260V263H126.2V260L117.2 257.3C109.4 254.9 105.5 249.8 105.5 242V186.8H115.7C137.1 186.8 154.1 184 166.7 178.4C179.3 172.8 188.3 165.3 193.7 155.9C199.3 146.3 202.1 135.8 202.1 124.4C202.1 106.6 195.4 92.3 182 81.5C168.8 70.5 147.3 65 117.5 65H44.5996ZM329 240.335C327.129 241.638 325.219 242.793 323.27 243.8C317.07 247 308.97 248.6 298.97 248.6C284.17 248.6 272.969 243.9 265.369 234.5C257.969 224.9 254.17 209.3 253.97 187.7H329V240.335ZM282.17 120.2C292.37 120.2 299.269 125 302.869 134.6C306.469 144.2 307.27 159.9 305.27 181.7H253.97C254.17 165.5 255.369 153 257.569 144.2C259.969 135.2 263.17 129 267.17 125.6C271.37 122 276.37 120.2 282.17 120.2ZM115.7 71C125.3 71 133.3 72.5998 139.7 75.7998C146.1 78.7998 150.9 84.3 154.1 92.2998C157.5 100.3 159.2 111.5 159.2 125.9C159.2 140.1 157.7 151.2 154.7 159.2C151.7 167.2 147.1 172.8 140.9 176C134.7 179.2 126.7 180.8 116.9 180.8H105.5V71H115.7Z" fill="black"/>
</svg>
